<?xml version="1.0" encoding="utf-8"?>
<!-- Generator: Adobe Illustrator 21.1.0, SVG Export Plug-In . SVG Version: 6.00 Build 0)  -->
<svg version="1.1" id="Calque_1" xmlns="http://www.w3.org/2000/svg" xmlns:xlink="http://www.w3.org/1999/xlink" x="0px" y="0px"
	 viewBox="0 0 1280 1024" style="enable-background:new 0 0 1280 1024;">
<style type="text/css">
	.st0{fill:#1C1E45;stroke:#1C1E45;stroke-width:4.5611;stroke-linecap:round;stroke-linejoin:round;stroke-miterlimit:10;}
	.st1{fill:#FFFFFF;}
	.st2{fill:#FD5D93;}
	.st3{fill:#00BF9A;}
	.st4{fill:#FF8D72;}
	.st5{fill:#1C1E45;}
</style>
<path class="st0" d="M1208.1,943.8H70.5c-26.3,0-47.9-21.6-47.9-47.9V127.1c0-26.3,21.6-47.9,47.9-47.9h1137.6
	c26.3,0,47.9,21.6,47.9,47.9v768.8C1256,922.2,1234.4,943.8,1208.1,943.8z"/>
<path class="st1" d="M406.6,616.7H149.5c-23.8,0-43.2-19.4-43.2-43.2V210c0-23.8,19.4-43.2,43.2-43.2h257.1
	c23.8,0,43.2,19.4,43.2,43.2v363.5C449.8,597.2,430.4,616.7,406.6,616.7z"/>
<g>
	<path class="st1" d="M117.1,655h32.3v192.9h-32.3V655z"/>
	<path class="st1" d="M218.2,655l83.5,100.5L385.1,655h17.5v192.9h-32.3V716.2L301.7,800L233,716.2v131.7h-32.2V655H218.2z"/>
	<path class="st1" d="M575.7,812.1H484l-13.9,35.8h-33.8L514,655h31.9l77.5,192.9h-33.8L575.7,812.1z M495.3,782.7h69l-34.4-89.1
		L495.3,782.7z"/>
	<path class="st1" d="M657.4,655h76.1c14,0,23,2.2,30.8,6.2c17.5,8.6,29.2,26,29.2,48.3c0,13.2-5.7,25-15.2,33.9
		c18.4,8.6,31.2,25.8,31.2,47.8c0,22.7-11.8,41-29.9,50.2c-8.2,4.2-17.5,6.6-32.3,6.6h-90V655z M730.2,734c8.3,0,12.5-0.7,16.4-2.2
		c9.1-3.9,16-11.7,16-22.7c0-11-6.9-18.8-16-22.7c-3.8-1.6-7.9-2.3-16.4-2.3h-40.6V734H730.2z M741.7,818.5c9.1,0,13.7-0.9,18-2.6
		c10.2-4.2,18-13.2,18-26c0-12.2-7.5-21.5-18-25.7c-4.2-1.7-8.7-2.6-18.3-2.6h-51.9v56.8H741.7z"/>
	<path class="st1" d="M884.1,654.9v162.9h99.6v30.1H851.8V654.9H884.1z"/>
	<path class="st1" d="M1155.8,655v29.9h-99.4v42.4h77.1v29.6h-77.1v61.2h99.4v29.9h-131.7V655H1155.8z"/>
</g>
<path class="st1" d="M767.2,616.7H510.1c-23.8,0-43.2-19.4-43.2-43.2V210c0-23.8,19.4-43.2,43.2-43.2h257.1
	c23.8,0,43.2,19.4,43.2,43.2v363.5C810.4,597.2,790.9,616.7,767.2,616.7z"/>
<path class="st2" d="M146.5,552.4c-2.5-1.9,0-290.5,0-290.5H208l114.4,167.9l0.7-169.9l64.3,2v290.5H325L205.9,373.2l3.9,179.1
	H146.5z"/>
<path class="st1" d="M1125,616.7H867.9c-23.8,0-43.2-19.4-43.2-43.2V210c0-23.8,19.4-43.2,43.2-43.2H1125
	c23.8,0,43.2,19.4,43.2,43.2v363.5C1168.2,597.2,1148.7,616.7,1125,616.7z"/>
<polygon class="st3" points="732.2,319 732.2,258.1 569.1,258.1 515.7,258.1 512,258.1 512,374.2 512,432.5 512,552.4 571.6,552.4 
	571.6,432.5 705.2,432.5 705.2,374.2 571.6,374.2 571.6,319 "/>
<polygon class="st4" points="1071.9,258.1 888.1,258.1 888.1,320.2 948.9,320.2 948.9,552.4 1016.1,552.4 1016.1,320.2 
	1071.9,320.2 "/>
<path class="st5" d="M385.5,257.2v2.5l31.8,31.8v294.2h-61.6l-31.8-31.8h-1.7l-83.1-124v155.8h-63.6l-31.8-31.8h-2.5V257.2h63.2
	l3.3,5l29.3,29.3l82.2,123.1V257.2H385.5z M324.3,417.9v12.8v13.6L202.4,262.2h-56.2v143.4v143.4h56.2v-56.2v-62v-56.2v-8.3
	l121.9,182.6h56.2v-56.2v-62V262.2h-56.2v112.4V417.9z"/>
<path class="st5" d="M732.6,257.2v2.5l31.8,31.8v63.6H604.5v14.5h99.6v2.5l31.8,31.8v63.6H604.5v118.2h-63.6l-31.8-31.8h-2.5V257.2
	H732.6z M511.5,405.5v143.4h56.2v-56.2v-62h131.4v-56.2h-99.6h-31.8v-56.2H626h101.6v-56.2H626H511.5V405.5z"/>
<path class="st5" d="M1073.3,257.2v2.5l31.8,31.8v63.6h-61.6v230.6h-63.6l-31.8-31.8h-2.5V355.1h-27.3l-31.8-31.8H884v-66.1H1073.3z
	 M889,262.2v56.2h61.6v29.7v200.8h56.2V348.1v-29.7h29.7h5.8h6.2h19.8v-56.2H889z"/>
<g>
	<path class="st2" d="M449.8,210.2c0-23.9-19.3-43.4-43-43.4H149.3c-23.6,0-43,19.5-43,43.4v24.7h343.5V210.2z"/>
</g>
<g>
	<path class="st3" d="M810.4,210.2c0-23.9-19.3-43.4-43-43.4H509.9c-23.6,0-43,19.5-43,43.4v24.7h343.5V210.2z"/>
</g>
<g>
	<path class="st4" d="M1168.2,210.2c0-23.9-19.3-43.4-43-43.4H867.7c-23.6,0-43,19.5-43,43.4v24.7h343.5V210.2z"/>
</g>
</svg>
